<?xml version="1.0" encoding="UTF-8"?><svg id="Layer_1" xmlns="http://www.w3.org/2000/svg" width="138" height="138" viewBox="0 0 138 138"><path d="m63.2329,55.9788c-.1338-2.0303-.2676-3.6406-.6016-4.9707-.8701-.77-2.2754-1.3301-4.4844-1.96v-2.9404c2.4766.21,6.3584.2798,8.9678.2798,2.9453,0,6.4248-.0698,9.2363-.2798v2.9404c-1.9414.5601-3.2793,1.1201-4.083,1.8198-.4688,2.2402-.6689,4.0605-.8701,7.4912v23.6621c.0674,1.8901.2676,3.2905.8037,4.9004,1.1377.8403,2.7432,1.5405,4.9521,2.0303v2.8706c-2.6768-.1401-6.8262-.21-9.5029-.21-2.4766,0-4.4844.0698-9.1025.21v-2.9404c1.9414-.4199,3.1455-.8403,3.8818-1.4702.4688-1.8901.6025-3.8506.8027-7.5605v-9.3813h-18.0693v11.5513c.1338,1.8901.4014,3.2905.8701,4.9004.9365.8403,2.6768,1.4702,4.8857,2.0303v2.9404c-2.6104-.1401-6.3584-.2798-9.1025-.2798-2.4756,0-5.7549.0698-9.5029.21v-2.9404c1.9404-.4902,3.2129-.8403,3.8818-1.4702.4688-1.8901.6025-3.8506.8027-7.5605v-23.8027c-.1338-1.8901-.2676-3.29-.8027-4.8306-.8701-.8398-2.6768-1.54-4.8857-2.0303v-3.0103c2.6768.21,6.7598.2803,9.4365.2803,2.9443,0,6.291-.0703,9.1016-.2803v2.9404c-1.8066.4902-2.9443.9102-3.8145,1.6104-.4688,2.0303-.6689,3.8501-.8701,7.5605v7.4209h18.0693v-9.731Z"/><path d="m80.7642,88.3225c12.1025-8.0996,15.5439-12.4194,15.5439-17.8794,0-3.2998-1.4336-6.1196-5.4482-6.1196-1.6641,0-3.2695.2998-3.7861.48-.5732,1.5-.6309,3.4199-.5156,5.2798l-2.6387.8398h-1.9502c-.1152-2.46-.459-5.3999-.8027-7.3794,3.5557-1.8604,7.8574-3.1201,12.2744-3.1201,6.3096,0,10.8975,3.1797,10.8975,9.0596,0,5.04-2.2363,9.2998-16.2891,17.6992l.1719.2402c1.6055-.2402,3.6133-.3599,5.3916-.3599h5.8506c1.4912-2.3403,2.3516-4.1401,2.8105-5.8198l4.416.6597c-.917,2.9399-1.6055,6.54-1.835,9.7798h-24.0908v-3.3599Z"/></svg>