<?xml version="1.0" encoding="UTF-8"?><svg id="Layer_1" xmlns="http://www.w3.org/2000/svg" width="138" height="138" viewBox="0 0 138 138"><path d="m65.0396,53.054c-.1338-2.0303-.2676-3.6406-.6025-4.9707-.8701-.77-2.2754-1.3301-4.4834-1.96v-2.9404c2.4756.21,6.3574.2798,8.9678.2798,2.9443,0,6.4248-.0698,9.2354-.2798v2.9404c-1.9404.5601-3.2793,1.1201-4.082,1.8198-.4688,2.2402-.6699,4.0605-.8701,7.4912v23.6621c.0664,1.8901.2676,3.2905.8027,4.9004,1.1377.8403,2.7441,1.5405,4.9521,2.0303v2.8706c-2.6768-.1401-6.8262-.21-9.5029-.21-2.4766,0-4.4844.0698-9.1016.21v-2.9404c1.9404-.4199,3.1455-.8403,3.8818-1.4702.4678-1.8901.6016-3.8506.8027-7.5605v-9.3813h-18.0693v11.5513c.1338,1.8901.4014,3.2905.8691,4.9004.9375.8403,2.6777,1.4702,4.8857,2.0303v2.9404c-2.6104-.1401-6.3574-.2798-9.1016-.2798-2.4766,0-5.7559.0698-9.5029.21v-2.9404c1.9404-.4902,3.2119-.8403,3.8809-1.4702.4688-1.8901.6025-3.8506.8037-7.5605v-23.8027c-.1338-1.8901-.2676-3.29-.8037-4.8306-.8701-.8398-2.6768-1.54-4.8848-2.0303v-3.0103c2.6768.21,6.7588.2803,9.4355.2803,2.9453,0,6.291-.0703,9.1025-.2803v2.9404c-1.8076.4902-2.9453.9102-3.8154,1.6104-.4678,2.0303-.6689,3.8501-.8691,7.5605v7.4209h18.0693v-9.731Z"/><path d="m91.519,76.9978c-.8027,0-1.835.0601-3.6133.6001l-1.7783-1.3198,1.4912-2.8198c4.3594-.1201,9.1201-3,9.1201-7.3198,0-2.7598-1.4346-5.0996-4.9902-5.0996-1.5488,0-3.5566.48-3.958.6597-.3438,1.3203-.4014,2.9399-.2861,4.7998l-2.4668,1.02h-1.835c-.1152-2.5195-.459-5.1597-.8037-7.1396,3.5566-1.5,8.0303-2.9399,11.0127-2.9399,7.5713,0,10.3242,3.1802,10.3242,8.0396,0,3.6001-2.6953,6.54-7.5137,8.52l.1152.2998c5.4482.7202,8.5459,3.7798,8.5459,9.1196,0,6.6597-5.8506,11.3994-13.4785,11.3994-3.5566,0-6.3096-.54-9.5215-1.5.3438-1.9795.8027-6.1196.917-8.7593l4.1875.4199c-.0576,1.8599.0576,4.3799.6309,5.8198.5732.2998,2.0654.7197,3.499.7197,3.2695,0,6.1367-2.2798,6.1367-7.8594,0-3.8398-1.4336-6.6602-5.7354-6.6602Z"/></svg>