<?xml version="1.0" encoding="UTF-8"?><svg id="Layer_1" xmlns="http://www.w3.org/2000/svg" width="138" height="138" viewBox="0 0 138 138"><path d="m65.957,55.9038c-.1338-2.0303-.2676-3.6406-.6025-4.9707-.8701-.77-2.2754-1.3301-4.4834-1.96v-2.9404c2.4756.21,6.3574.2798,8.9678.2798,2.9443,0,6.4248-.0698,9.2354-.2798v2.9404c-1.9404.5601-3.2793,1.1201-4.082,1.8198-.4688,2.2402-.6699,4.0605-.8701,7.4912v23.6621c.0664,1.8901.2676,3.2905.8027,4.9004,1.1377.8403,2.7441,1.5405,4.9521,2.0303v2.8706c-2.6768-.1401-6.8262-.21-9.5029-.21-2.4766,0-4.4844.0698-9.1016.21v-2.9404c1.9404-.4199,3.1455-.8403,3.8818-1.4702.4678-1.8901.6016-3.8506.8027-7.5605v-9.3813h-18.0693v11.5513c.1338,1.8901.4014,3.2905.8691,4.9004.9375.8403,2.6777,1.4702,4.8857,2.0303v2.9404c-2.6104-.1401-6.3574-.2798-9.1016-.2798-2.4766,0-5.7559.0698-9.5029.21v-2.9404c1.9404-.4902,3.2119-.8403,3.8809-1.4702.4688-1.8901.6025-3.8506.8037-7.5605v-23.8027c-.1338-1.8901-.2676-3.29-.8037-4.8306-.8701-.8398-2.6768-1.54-4.8848-2.0303v-3.0103c2.6768.21,6.7588.2803,9.4355.2803,2.9453,0,6.291-.0703,9.1025-.2803v2.9404c-1.8076.4902-2.9453.9102-3.8154,1.6104-.4678,2.0303-.6689,3.8501-.8691,7.5605v7.4209h18.0693v-9.731Z"/><path d="m90.4863,71.0884c0-1.5601-.3438-3.6602-.6309-4.3799l-5.8506.3599v-2.7598c6.0801-1.6802,9.4072-3.1201,12.1025-5.04l1.9502,1.02c-.3438,1.2002-.6885,3.8999-.6885,6v16.7393c.1152,1.5601.2871,3.1797.6885,4.4399.918.7197,3.6133,1.3799,5.9082,1.7998v2.52c-2.4668-.1201-6.998-.1802-9.2354-.1802-2.4658,0-8.0869.1802-10.668.3599v-2.5796c2.2939-.4199,5.1621-1.2603,5.793-1.9199.3438-1.4399.459-2.8203.6309-5.7002v-10.6792Z"/></svg>