<?xml version="1.0" encoding="UTF-8"?><svg id="Layer_1" xmlns="http://www.w3.org/2000/svg" width="138" height="138" viewBox="0 0 138 138"><path d="m58.3047,77.856c.2414.432.4788.8172.629,1.0578-.2182-.3461-.4216-.7006-.619-1.0578h-.01Z"/><path d="m59.0957,79.1683h.0049c-.0397-.0628-.0829-.1207-.1221-.1835.0727.1145.1172.1835.1172.1835h0Z"/><path d="m70.5033,87.6185c-.5234-.1564-1.0362-.3368-1.5399-.5312-.0024.0016-.0059.0023-.0076.0031.0502.0199.6482.2572,1.5475.5281h0Z"/><path d="m70.8469,87.7178c.0016,0,.0041-.0016.0059-.0023-.088-.0238-.1766-.0452-.2639-.0724.0837.0264.1701.0517.2579.0747h0Z"/><path d="m89.2921,49.1109h-12.5581c-1.0844,0-2.1498.0794-3.1901.2327-.2266.0333-.4489.0801-.6727.1199,3.8547,2.1172,7.0264,5.2454,9.1151,9.0081h7.9515c6.0746,0,10.999,4.7146,10.999,10.5296s-4.9246,10.5289-10.999,10.5289h-13.7355c-2.742,0-5.2466-.9624-7.173-2.5507l-.0024.0023c0-.0016-.0008-.0016-.0016-.0023-.41-.3288-.7351-.637-1.0006-.9117-.5806-.6067-.8388-1.0348-.8388-1.0348.0008-.0016.0016-.0016.0016-.0023-.0008-.0008-.0016-.0016-.0016-.0023-1.2486-1.7075-1.982-3.7848-1.982-6.0266,0-2.1808.6919-4.2057,1.8775-5.887.034-.0476.0713-.0928.1053-.1399-1.4403-1.1698-3.3002-1.8796-5.3338-1.8796h-4.1823c-1.0991,2.4238-1.7149,5.0952-1.7149,7.9063s.6114,5.4819,1.7098,7.9056c.2026.4454.4224.8823.6571,1.3111.1966.3573.4.7117.619,1.0578.0165.0261.03.0468.0448.0698.0389.0628.0821.1207.1221.1835,2.3164,3.5442,5.7643,6.3373,9.8631,7.9202.5045.1947,1.0171.3748,1.5399.5312.0281.0088.0564.0176.0853.0246.0872.0269.1758.0483.2639.0724.2239.0636.4489.128.6762.1843.0032,0,.0049.0016.0084.0023,1.6593.4074,3.3982.6251,5.1885.6251h12.5581c11.4754,0,20.7778-8.9042,20.7778-19.8884.0005-10.9842-9.3017-19.8898-20.7771-19.8898l-.0003-.0003Z"/><path d="m48.7085,88.8891h12.5581c1.0851,0,2.1505-.0801,3.1908-.2334.2266-.0333.4497-.0794.6727-.1199-3.8547-2.1164-7.0271-5.2443-9.1151-9.0075l-1.0279.0003h-6.9241c-6.0746,0-10.999-4.7139-10.999-10.5296s4.9239-10.5282,10.999-10.5282h13.7348c2.7412,0,5.2458.9624,7.1723,2.5507l.0016-.0023c.0008.0008.0008.0016.0016.0023.4108.328.736.6362,1.0006.9117.5815.6052.8388,1.034.8388,1.034,0,.0008-.0008.0016-.0016.0023.0008,0,.0016.0008.0024.0023,1.2486,1.7075,1.9829,3.7848,1.9829,6.0258,0,2.1808-.6928,4.2064-1.8783,5.8862-.034.0491-.0705.0936-.1053.1399,1.4403,1.1706,3.301,1.8814,5.3338,1.8814h4.1831c1.0984-2.4246,1.7133-5.096,1.7133-7.9069s-.6114-5.4819-1.7098-7.9056c-.2026-.4454-.4224-.8823-.6571-1.3111-.1966-.358-.4-.7132-.619-1.0578-.0165-.0261-.03-.0476-.044-.0706-.0397-.062-.0821-.1215-.1221-.1828-2.3164-3.5442-5.7652-6.3381-9.8631-7.9202-.5045-.1947-1.0171-.3741-1.5399-.532-.0281-.0088-.0564-.0168-.0853-.0253-.0872-.0253-.1758-.0468-.2639-.0706-.2239-.0644-.4489-.1287-.6771-.1843-.0032-.0008-.0049-.0008-.0076-.0016-1.6593-.409-3.3975-.6258-5.1894-.6258h-12.5567c-11.4754,0-20.7778,8.9036-20.7778,19.8884s9.3017,19.8898,20.7778,19.8898l.0002.0003Z"/><path d="m71.5376,87.9031c-.0024-.0008-.0049-.0023-.0084-.0023.0035,0,.0059.0016.0084.0023Z"/><path d="m70.5033,87.6185c.0281.0088.0564.0176.0853.0246-.0281-.0062-.0562-.0158-.0853-.0246Z"/><path d="m67.1792,74.6708s.2579.4281.8388,1.0348c.0041-.0047.0084-.0096.0132-.0119-.3063-.3231-.5882-.6669-.8505-1.0252,0,.0008-.0008.0008-.0016.0023h0Z"/><path d="m58.9781,78.9836c-.0149-.023-.0281-.0437-.0448-.0698.0159.0238.03.046.0448.0698Z"/><path d="m68.031,75.6939c-.0049.0023-.0092.0072-.0132.0119.2647.2756.5898.5829,1.0006.9117.0008-.0016.0016-.0023.0016-.0023-.3487-.2877-.6803-.5951-.989-.9213h0Z"/><path d="m69.0224,76.6178c.0008-.0023.0032-.0047.01-.0119-.0032.0031-.0084.0065-.0124.0096.0008-.0003.0016.0005.0024.0023Z"/><path d="m69.019,76.6158h.0032v.0031h-.0032v-.0031Z"/></svg>