<?xml version="1.0" encoding="UTF-8"?><svg id="Layer_1" xmlns="http://www.w3.org/2000/svg" width="138" height="138" viewBox="0 0 138 138"><defs><style>.cls-1{fill:none;stroke:#666;stroke-miterlimit:10;stroke-width:2px;}</style></defs><line class="cls-1" x1="47.2052" y1="60.5273" x2="112.2052" y2="60.5273"/><line class="cls-1" x1="47.2052" y1="70.5273" x2="92.2052" y2="70.5273"/><line class="cls-1" x1="47.2052" y1="80.5273" x2="102.2052" y2="80.5273"/><path d="m31.1576,65.252c0-1.2904-.2852-3.0284-.5228-3.6239l-4.84.2982v-2.2834c5.0299-1.3906,7.7828-2.5816,10.0137-4.1702l1.6128.8436c-.2844.993-.5688,3.2272-.5688,4.9644v13.8501c.0945,1.2912.2367,2.6309.5688,3.674.7595.5955,2.9905,1.1417,4.8885,1.4892v2.0847c-2.0402-.0994-5.7894-.1487-7.6406-.1487-2.041,0-6.692.1487-8.8275.2973v-2.134c1.8988-.3474,4.2712-1.0431,4.7931-1.5886.2852-1.1918.3798-2.3335.5228-4.7164v-8.8364Z"/></svg>