<?xml version="1.0" encoding="UTF-8"?><svg id="Layer_1" xmlns="http://www.w3.org/2000/svg" width="138" height="138" viewBox="0 0 138 138"><path d="m57.7915,75.196h-13.1836l-3.748,11.0605.2002.6299c.8701.5596,2.8115,1.2607,4.752,1.751v2.7998c-2.1416-.1396-3.6143-.21-7.0938-.21-2.4092,0-5.8896.0703-8.2324.2793v-2.9395c1.874-.5605,3.2129-1.1904,4.4844-1.8906l14.7236-40.8843h6.8262l13.3184,40.5347c.6689.6299,2.7441,1.54,4.8857,2.2402v2.8701c-3.8818-.1396-6.9609-.21-9.3701-.21-2.7441,0-6.8262.1396-9.5029.21v-2.8701c2.2754-.4199,4.2832-.9805,5.2871-1.4707l.2002-.4902-3.5469-11.4102Zm-5.9561-19.9526h-.6025l-5.2197,15.6812h10.5742l-4.752-15.6812Z"/><path d="m95.6685,87.657h-.4014c-1.2041.9805-2.3418,2.0996-3.6133,3.1504-1.1377.8398-2.6777,1.4004-5.6221,1.4004-4.6846,0-8.7676-2.1006-8.7676-8.8916,0-2.9404,1.0713-5.1104,2.2754-6.5107,2.9453-1.6797,8.7002-3.3604,14.4561-4.7598v-4.1309c0-4.5508-.8027-6.8608-4.5508-6.8608-1.9404,0-3.6143.4902-3.6143.4902-.334,1.1201-.5352,3.0801-.5352,4.9004,0,.4902,0,.77.0674,1.3999l-3.3467.9805h-2.0742c-.2012-2.4507-.5361-5.3906-.8701-7.7012,3.2119-1.6802,9.9717-4.1304,13.251-4.1304,7.0938,0,9.6367,3.4307,9.6367,9.4512v14.9819c0,1.96.5361,4.4805.8701,5.6699,1.0039.8398,2.4092,1.3301,4.6846,1.8203v2.5898c-1.6055-.1396-4.6172-.209-6.2236-.209-1.4053,0-3.0781.0693-4.9521.3496-.1338-1.4707-.4014-3.0098-.6699-3.9902Zm-1.6729-12.3916c-2.9443.8408-5.6885,1.8896-6.96,2.7998-.7363.8408-1.4053,2.2402-1.4053,4.2715,0,2.7998,1.2715,4.4805,3.8818,4.4805,1.7393,0,3.3457-.8398,4.4834-1.8906v-9.6611Z"/></svg>