<svg width="75" height="75" viewBox="0 0 75 75" fill="none" xmlns="http://www.w3.org/2000/svg">
<g filter="url(#filter0_d_3_10)">
<path d="M63.1751 1H10.8249C5.39874 1 1 4.15747 1 8.0524V65.9476C1 69.8425 5.39874 73 10.8249 73H63.1751C68.6013 73 73 69.8425 73 65.9476V8.0524C73 4.15747 68.6013 1 63.1751 1Z" fill="#7986CB"/>
<path d="M63.1751 1H10.8249C5.39874 1 1 4.15747 1 8.0524V65.9476C1 69.8425 5.39874 73 10.8249 73H63.1751C68.6013 73 73 69.8425 73 65.9476V8.0524C73 4.15747 68.6013 1 63.1751 1Z" stroke="black" stroke-width="0.1073" stroke-miterlimit="10"/>
</g>
<g filter="url(#filter1_d_3_10)">
<path d="M54.7397 21.1142H15.2232V26.0953H54.7397V21.1142Z" fill="white"/>
<path d="M58.1625 30.3292H29.8811V35.3103H58.1625V30.3292Z" fill="white"/>
<path d="M27.8855 30.3292H15.2232V35.3103H27.8855V30.3292Z" fill="white"/>
<path d="M57.7837 47.5138H15.2232V52.4949H57.7837V47.5138Z" fill="white"/>
<path d="M40.4053 38.9353H15.2232V43.9164H40.4053V38.9353Z" fill="white"/>
</g>
<defs>
<filter id="filter0_d_3_10" x="0.12615" y="0.12615" width="74.5133" height="74.5133" filterUnits="userSpaceOnUse" color-interpolation-filters="sRGB">
<feFlood flood-opacity="0" result="BackgroundImageFix"/>
<feColorMatrix in="SourceAlpha" type="matrix" values="0 0 0 0 0 0 0 0 0 0 0 0 0 0 0 0 0 0 127 0" result="hardAlpha"/>
<feOffset dx="0.3828" dy="0.3828"/>
<feGaussianBlur stdDeviation="0.6015"/>
<feColorMatrix type="matrix" values="0 0 0 0 0.439216 0 0 0 0 0.439216 0 0 0 0 0.439216 0 0 0 0.2 0"/>
<feBlend mode="normal" in2="BackgroundImageFix" result="effect1_dropShadow_3_10"/>
<feBlend mode="normal" in="SourceGraphic" in2="effect1_dropShadow_3_10" result="shape"/>
</filter>
<filter id="filter1_d_3_10" x="9.37091" y="15.2619" width="60.1061" height="48.5475" filterUnits="userSpaceOnUse" color-interpolation-filters="sRGB">
<feFlood flood-opacity="0" result="BackgroundImageFix"/>
<feColorMatrix in="SourceAlpha" type="matrix" values="0 0 0 0 0 0 0 0 0 0 0 0 0 0 0 0 0 0 127 0" result="hardAlpha"/>
<feOffset dx="2.7311" dy="2.7311"/>
<feGaussianBlur stdDeviation="4.2917"/>
<feColorMatrix type="matrix" values="0 0 0 0 0.298039 0 0 0 0 0.298039 0 0 0 0 0.298039 0 0 0 0.22 0"/>
<feBlend mode="normal" in2="BackgroundImageFix" result="effect1_dropShadow_3_10"/>
<feBlend mode="normal" in="SourceGraphic" in2="effect1_dropShadow_3_10" result="shape"/>
</filter>
</defs>
</svg>
