<svg width="463" height="80" viewBox="0 0 463 80" fill="none" xmlns="http://www.w3.org/2000/svg">
<path d="M88.077 60.537V13.9647H98.6825L98.8593 23.5086L96.8261 24.5691C97.415 22.449 98.5634 20.5193 100.273 18.781C101.981 17.0437 104.014 15.6443 106.371 14.5837C108.727 13.5232 111.143 12.9929 113.617 12.9929C117.152 12.9929 120.112 13.6999 122.498 15.114C124.885 16.5281 126.681 18.6482 127.89 21.4763C129.096 24.3044 129.701 27.8396 129.701 32.0808V60.5369H118.831V32.8767C118.831 30.5212 118.507 28.5613 117.859 26.9997C117.21 25.4392 116.209 24.2907 114.855 23.5534C113.498 22.8171 111.85 22.4792 109.905 22.5368C108.315 22.5368 106.857 22.7878 105.531 23.2878C104.205 23.7898 103.057 24.4958 102.085 25.4089C101.112 26.323 100.346 27.3679 99.7871 28.5466C99.2266 29.7253 98.9473 31.0202 98.9473 32.4343V60.5368H88.0772L88.077 60.537Z" fill="#1A1A1A"/>
<path d="M163.193 61.4208C158.539 61.4208 154.386 60.3759 150.733 58.2831C147.079 56.1933 144.193 53.3212 142.072 49.6669C139.952 46.0146 138.891 41.8612 138.891 37.2069C138.891 32.5526 139.952 28.4003 142.072 24.746C144.193 21.0937 147.079 18.2216 150.733 16.1298C154.386 14.04 158.539 12.9931 163.193 12.9931C167.789 12.9931 171.912 14.04 175.565 16.1298C179.218 18.2216 182.09 21.0937 184.182 24.746C186.272 28.4003 187.319 32.5536 187.319 37.2069C187.319 41.8602 186.272 46.0145 184.182 49.6669C182.09 53.3212 179.218 56.1933 175.565 58.2831C171.912 60.3759 167.789 61.4208 163.193 61.4208ZM163.193 51.788C165.725 51.788 167.979 51.1405 169.954 49.8437C171.928 48.5488 173.489 46.8105 174.638 44.6298C175.787 42.4511 176.331 39.9765 176.272 37.2069C176.331 34.3788 175.787 31.8758 174.638 29.6952C173.489 27.5165 171.928 25.7929 169.954 24.5253C167.979 23.2597 165.725 22.6259 163.193 22.6259C160.661 22.6259 158.377 23.2597 156.345 24.5253C154.312 25.7929 152.735 27.5302 151.617 29.7392C150.497 31.9492 149.937 34.4384 149.937 37.207C149.937 39.9756 150.497 42.4511 151.617 44.6299C152.735 46.8106 154.312 48.5488 156.345 49.8438C158.377 51.1407 160.66 51.7881 163.193 51.7881V51.788Z" fill="#1A1A1A"/>
<path d="M192.886 24.0389V13.9647H223.109V24.0389H192.886ZM202.077 60.5369V2.12291H212.946V60.537H202.077V60.5369Z" fill="#1A1A1A"/>
<path d="M252.802 61.4208C247.911 61.4208 243.596 60.3905 239.855 58.328C236.113 56.2665 233.197 53.453 231.106 49.8885C229.015 46.324 227.97 42.244 227.97 37.6483C227.97 33.996 228.558 30.6669 229.737 27.6629C230.915 24.658 232.55 22.0506 234.642 19.8416C236.732 17.6326 239.237 15.9246 242.153 14.7156C245.069 13.5095 248.265 12.9041 251.741 12.9041C254.804 12.9041 257.662 13.4939 260.313 14.6717C262.965 15.8514 265.263 17.4559 267.207 19.4881C269.15 21.5203 270.638 23.9373 271.669 26.7342C272.699 29.534 273.186 32.5828 273.128 35.8807L273.039 39.6815H235.305L233.271 32.2577H263.936L262.522 33.7606V31.8163C262.346 29.9911 261.757 28.3847 260.756 26.9999C259.753 25.6161 258.472 24.5253 256.911 23.7304C255.35 22.9345 253.626 22.537 251.741 22.537C248.854 22.537 246.424 23.0975 244.451 24.2157C242.477 25.3358 240.989 26.9423 239.988 29.0321C238.985 31.1239 238.485 33.7313 238.485 36.8534C238.485 39.8583 239.118 42.4804 240.386 44.7186C241.652 46.9579 243.448 48.6815 245.776 49.8885C248.103 51.0965 250.827 51.7 253.951 51.7C256.13 51.7 258.134 51.3465 259.96 50.6395C261.785 49.9325 263.76 48.6659 265.881 46.8397L271.271 54.3504C269.681 55.824 267.869 57.077 265.837 58.1063C263.805 59.1385 261.668 59.9491 259.43 60.537C257.19 61.1249 254.98 61.4208 252.802 61.4208H252.802Z" fill="#1A1A1A"/>
<path d="M298.313 61.4208C294.189 61.4208 290.493 60.7274 287.223 59.3437C283.953 57.9609 281.287 55.9716 279.225 53.3789L286.295 47.2812C288.062 49.2851 290.036 50.7275 292.216 51.6113C294.394 52.4951 296.692 52.9375 299.109 52.9375C300.11 52.9375 301.009 52.8193 301.805 52.584C302.599 52.3486 303.292 51.9951 303.881 51.5235C304.47 51.0528 304.927 50.5069 305.251 49.8887C305.574 49.2696 305.737 48.5782 305.737 47.8116C305.737 46.3975 305.207 45.2794 304.146 44.4532C303.557 44.0421 302.629 43.5997 301.362 43.128C300.095 42.6573 298.46 42.1866 296.458 41.7139C293.276 40.8897 290.625 39.9327 288.505 38.8418C286.384 37.752 284.733 36.5303 283.556 35.1748C282.553 34.0557 281.802 32.7881 281.302 31.374C280.801 29.9599 280.551 28.4287 280.551 26.7793C280.551 24.7178 281.007 22.8467 281.921 21.167C282.833 19.4883 284.086 18.0303 285.677 16.793C287.268 15.5557 289.123 14.6143 291.244 13.9649C293.365 13.3174 295.574 12.9932 297.872 12.9932C300.227 12.9932 302.512 13.2881 304.721 13.877C306.93 14.4668 308.991 15.3057 310.906 16.3956C312.82 17.4864 314.455 18.797 315.811 20.3282L309.802 26.9561C308.682 25.8956 307.46 24.9532 306.135 24.128C304.808 23.3038 303.469 22.6407 302.113 22.1397C300.758 21.6397 299.491 21.3887 298.313 21.3887C297.194 21.3887 296.192 21.4922 295.308 21.6973C294.426 21.9043 293.688 22.2139 293.099 22.626C292.51 23.0381 292.052 23.5537 291.73 24.1719C291.405 24.791 291.244 25.5127 291.244 26.3369C291.302 27.0439 291.494 27.707 291.818 28.3252C292.141 28.9443 292.598 29.4609 293.188 29.8721C293.836 30.2852 294.807 30.7559 296.104 31.2862C297.399 31.8165 299.079 32.3174 301.141 32.7882C304.027 33.5548 306.444 34.4093 308.387 35.3517C310.332 36.2941 311.863 37.3839 312.983 38.6212C314.101 39.6817 314.897 40.9191 315.369 42.3321C315.841 43.7462 316.076 45.3087 316.076 47.0167C316.076 49.7862 315.295 52.2608 313.734 54.4396C312.173 56.6203 310.051 58.3283 307.372 59.5656C304.69 60.8019 301.672 61.4211 298.313 61.4211L298.313 61.4208Z" fill="#1A1A1A"/>
<path d="M325.618 79.9784V13.9647H336.311L336.488 24.5692L334.633 23.7743C334.986 21.9491 335.987 20.2255 337.638 18.6044C339.286 16.9853 341.305 15.6747 343.69 14.6718C346.077 13.6708 348.565 13.1698 351.158 13.1698C355.281 13.1698 358.948 14.201 362.16 16.2626C365.371 18.3261 367.904 21.1532 369.761 24.746C371.616 28.3407 372.544 32.494 372.544 37.2069C372.544 41.8612 371.616 45.9999 369.761 49.6229C367.904 53.2459 365.371 56.1043 362.16 58.1952C358.948 60.287 355.341 61.3319 351.335 61.3319C348.624 61.3319 346.018 60.8016 343.514 59.7421C341.009 58.6816 338.889 57.2978 337.151 55.5878C335.413 53.8798 334.337 52.0839 333.926 50.1972L336.577 48.9599V79.9785H325.618L325.618 79.9784ZM349.126 51.7001C351.599 51.7001 353.809 51.081 355.754 49.8437C357.697 48.6064 359.214 46.8984 360.305 44.7187C361.394 42.54 361.939 40.0351 361.939 37.207C361.939 34.3789 361.409 31.8906 360.349 29.7392C359.288 27.5898 357.786 25.8954 355.842 24.6581C353.897 23.4208 351.658 22.8026 349.126 22.8026C346.532 22.8026 344.279 23.4071 342.365 24.6141C340.45 25.8221 338.933 27.5164 337.814 29.6952C336.694 31.8759 336.135 34.3788 336.135 37.2069C336.135 40.035 336.694 42.5399 337.814 44.7186C338.933 46.8983 340.45 48.6063 342.365 49.8436C344.279 51.0809 346.532 51.7 349.126 51.7L349.126 51.7001Z" fill="#7986CB"/>
<path d="M382.265 60.537V13.9647H392.958L393.135 28.8114L391.633 25.453C392.28 23.0975 393.4 20.9764 394.99 19.0907C396.581 17.2059 398.422 15.7186 400.514 14.6278C402.604 13.538 404.8 12.993 407.098 12.993C408.099 12.993 409.056 13.0809 409.97 13.2576C410.883 13.4344 411.634 13.6414 412.224 13.8767L409.307 25.8064C408.658 25.4529 407.862 25.1589 406.921 24.9226C405.977 24.6882 405.035 24.5691 404.093 24.5691C402.62 24.5691 401.221 24.8494 399.895 25.4089C398.569 25.9694 397.405 26.7497 396.404 27.7507C395.402 28.7536 394.622 29.9157 394.062 31.2419C393.502 32.5671 393.224 34.0554 393.224 35.7038V60.5368H382.265V60.537Z" fill="#7986CB"/>
<path d="M438.822 61.4208C434.168 61.4208 430.015 60.3759 426.362 58.2831C422.708 56.1933 419.822 53.3212 417.701 49.6669C415.581 46.0146 414.52 41.8612 414.52 37.2069C414.52 32.5526 415.581 28.4003 417.701 24.746C419.822 21.0937 422.708 18.2216 426.362 16.1298C430.014 14.04 434.168 12.9931 438.822 12.9931C443.418 12.9931 447.541 14.04 451.194 16.1298C454.847 18.2216 457.719 21.0937 459.81 24.746C461.901 28.4003 462.948 32.5536 462.948 37.2069C462.948 41.8602 461.901 46.0145 459.81 49.6669C457.719 53.3212 454.847 56.1933 451.194 58.2831C447.541 60.3759 443.418 61.4208 438.822 61.4208ZM438.822 51.788C441.354 51.788 443.608 51.1405 445.583 49.8437C447.556 48.5488 449.118 46.8105 450.266 44.6298C451.416 42.4511 451.96 39.9765 451.901 37.2069C451.96 34.3788 451.416 31.8758 450.266 29.6952C449.118 27.5165 447.556 25.7929 445.583 24.5253C443.608 23.2597 441.354 22.6259 438.822 22.6259C436.29 22.6259 434.006 23.2597 431.974 24.5253C429.941 25.7929 428.364 27.5302 427.246 29.7392C426.126 31.9492 425.566 34.4384 425.566 37.207C425.566 39.9756 426.126 42.4511 427.246 44.6299C428.364 46.8106 429.941 48.5488 431.974 49.8438C434.006 51.1407 436.289 51.7881 438.822 51.7881V51.788Z" fill="#7986CB"/>
<g filter="url(#filter0_d_1_3)">
<path d="M63.1751 1H10.8249C5.39874 1 1 4.15747 1 8.0524V65.9476C1 69.8425 5.39874 73 10.8249 73H63.1751C68.6013 73 73 69.8425 73 65.9476V8.0524C73 4.15747 68.6013 1 63.1751 1Z" fill="white"/>
<path d="M63.1751 1H10.8249C5.39874 1 1 4.15747 1 8.0524V65.9476C1 69.8425 5.39874 73 10.8249 73H63.1751C68.6013 73 73 69.8425 73 65.9476V8.0524C73 4.15747 68.6013 1 63.1751 1Z" stroke="black" stroke-width="0.1073" stroke-miterlimit="10"/>
</g>
<g filter="url(#filter1_d_1_3)">
<path d="M54.7397 21.1142H15.2232V26.0953H54.7397V21.1142Z" fill="#333333"/>
<path d="M58.1625 30.3292H29.8811V35.3103H58.1625V30.3292Z" fill="#7986CB"/>
<path d="M27.8855 30.3292H15.2232V35.3103H27.8855V30.3292Z" fill="#333333"/>
<path d="M57.7837 47.5138H15.2232V52.4949H57.7837V47.5138Z" fill="#333333"/>
<path d="M40.4053 38.9353H15.2232V43.9164H40.4053V38.9353Z" fill="#333333"/>
</g>
<defs>
<filter id="filter0_d_1_3" x="0.12615" y="0.12615" width="74.5133" height="74.5133" filterUnits="userSpaceOnUse" color-interpolation-filters="sRGB">
<feFlood flood-opacity="0" result="BackgroundImageFix"/>
<feColorMatrix in="SourceAlpha" type="matrix" values="0 0 0 0 0 0 0 0 0 0 0 0 0 0 0 0 0 0 127 0" result="hardAlpha"/>
<feOffset dx="0.3828" dy="0.3828"/>
<feGaussianBlur stdDeviation="0.6015"/>
<feColorMatrix type="matrix" values="0 0 0 0 0.439216 0 0 0 0 0.439216 0 0 0 0 0.439216 0 0 0 0.2 0"/>
<feBlend mode="normal" in2="BackgroundImageFix" result="effect1_dropShadow_1_3"/>
<feBlend mode="normal" in="SourceGraphic" in2="effect1_dropShadow_1_3" result="shape"/>
</filter>
<filter id="filter1_d_1_3" x="9.37091" y="15.2619" width="60.1061" height="48.5475" filterUnits="userSpaceOnUse" color-interpolation-filters="sRGB">
<feFlood flood-opacity="0" result="BackgroundImageFix"/>
<feColorMatrix in="SourceAlpha" type="matrix" values="0 0 0 0 0 0 0 0 0 0 0 0 0 0 0 0 0 0 127 0" result="hardAlpha"/>
<feOffset dx="2.7311" dy="2.7311"/>
<feGaussianBlur stdDeviation="4.2917"/>
<feColorMatrix type="matrix" values="0 0 0 0 0.298039 0 0 0 0 0.298039 0 0 0 0 0.298039 0 0 0 0.22 0"/>
<feBlend mode="normal" in2="BackgroundImageFix" result="effect1_dropShadow_1_3"/>
<feBlend mode="normal" in="SourceGraphic" in2="effect1_dropShadow_1_3" result="shape"/>
</filter>
</defs>
</svg>
